<svg xmlns="http://www.w3.org/2000/svg" xmlns:xlink="http://www.w3.org/1999/xlink" width="86" height="45" viewBox="0 0 86 45">
    <defs>
        <path id="tygd5a6rla" d="M0 0.604L85.98 0.604 85.98 34.294 0 34.294z"/>
        <path id="g0jsoo5jnc" d="M0 44.421L85.98 44.421 85.98 0.608 0 0.608z"/>
    </defs>
    <g fill="none" fill-rule="evenodd">
        <g>
            <g>
                <g transform="translate(-382 -883) translate(0 641) translate(382 242)">
                    <g transform="translate(0 .004)">
                        <mask id="0tbedhhx2b" fill="#fff">
                            <use xlink:href="#tygd5a6rla"/>
                        </mask>
                        <path fill="#5698D2" d="M33.444 32.445c-.37.047-.678.069-.965.069H17.708l-.115-.004-.14.004c-8.307 0-15.065-6.758-15.065-15.065 0-8.306 6.757-15.063 15.109-15.063h.002l14.98-.001c.287 0 .594.022.991.072 7.754.747 13.6 7.193 13.6 14.992 0 7.8-5.846 14.245-13.626 14.996M76.132.605H17.073l-.121.002-.107-.003C7.387.604-.275 8.44.007 17.96c.272 9.162 8.03 16.335 17.197 16.335H76.132c5.438 0 9.848-4.41 9.848-9.848V10.453c0-5.44-4.41-9.849-9.848-9.849" mask="url(#0tbedhhx2b)"/>
                    </g>
                    <path fill="#727D84" d="M16.8 20.942c-.56.145-1.184.313-2.187.313-1.965 0-4.238-1.047-4.238-3.984 0-2.703 1.797-4.048 4.228-4.048.75 0 1.48.177 2.187.4l-.158 1.68c-.635-.368-1.248-.546-1.924-.546-1.395 0-2.304 1.068-2.304 2.514 0 1.524 1.025 2.447 2.462 2.447.645 0 1.3-.177 1.839-.399l.095 1.623zM24.144 20.942c-.56.145-1.184.313-2.188.313-1.966 0-4.238-1.047-4.238-3.984 0-2.703 1.797-4.048 4.228-4.048.75 0 1.48.177 2.187.4l-.158 1.68c-.634-.368-1.247-.546-1.924-.546-1.395 0-2.303 1.068-2.303 2.514 0 1.524 1.025 2.447 2.462 2.447.645 0 1.3-.177 1.839-.399l.095 1.623zM33.989 13.223c-1.05 0-1.85.34-2.369.957-.52-.617-1.32-.957-2.371-.957-2.023 0-3.403.956-3.403 3.08v4.817h2.069V16.65c0-1.024.278-1.89 1.334-1.89 1.057 0 1.336.866 1.336 1.89v4.471h2.07V16.65c0-1.024.278-1.89 1.334-1.89 1.057 0 1.335.866 1.335 1.89v4.471h2.07v-4.817c0-2.124-1.38-3.08-3.405-3.08"/>
                    <path fill="#5698D2" d="M31.084 5.11c-2.563 0-5.073.815-7.151 2.293.454.322.887.676 1.295 1.059 1.74-1.14 3.742-1.74 5.856-1.74 5.916 0 10.73 4.814 10.73 10.73 0 5.918-4.814 10.732-10.73 10.732-3.47 0-6.743-1.69-8.755-4.522-.258-.365-.761-.45-1.123-.191-.364.258-.45.761-.19 1.124 2.313 3.257 6.077 5.202 10.068 5.202 6.805 0 12.343-5.538 12.343-12.345 0-6.806-5.538-12.343-12.343-12.343"/>
                    <path fill="#F58220" d="M16.78 29.797c2.562 0 5.072-.817 7.15-2.295-.453-.322-.886-.675-1.294-1.058-1.74 1.14-3.742 1.74-5.856 1.74-5.917 0-10.732-4.814-10.732-10.73 0-5.919 4.815-10.732 10.732-10.732 3.469 0 6.742 1.69 8.754 4.523.258.362.76.448 1.123.19.365-.258.449-.762.19-1.124C24.534 7.054 20.77 5.11 16.78 5.11c-6.806 0-12.344 5.537-12.344 12.343S9.974 29.797 16.78 29.797"/>
                    <path fill="#5698D2" d="M7.39 41.797c-.99-.194-1.846-.797-2.235-1.6-.402.803-1.259 1.406-2.242 1.6l-.295-.576c1.198-.2 2.17-1.105 2.17-2.035v-.455h.729v.455c0 .938.97 1.834 2.162 2.035l-.288.576zm.523 1.292v.57H2.437v-.57H4.8v-1.413h.69v1.413h2.423z"/>
                    <mask id="uamy55pu6d" fill="#fff">
                        <use xlink:href="#g0jsoo5jnc"/>
                    </mask>
                    <path fill="#5698D2" d="M12.202 44.42h.697v-6.064h-.697v6.065zM8.93 42.427h1.533v-1.48H8.93v1.48zm0-3.568v1.54h1.533v-1.54h.69v4.124H8.246v-4.124h.683zM19.037 41.314h-.944v3.094h-.69v-6.046h.69v2.384h.944v.568zm-3.508-1.198c0 .938.596 2.009 1.513 2.444l-.382.542c-.676-.321-1.191-.99-1.465-1.754-.268.843-.804 1.567-1.5 1.908l-.395-.549c.924-.442 1.54-1.586 1.54-2.59v-.583H13.52v-.569h3.287v.57h-1.28v.581z" mask="url(#uamy55pu6d)"/>
                    <path fill="#5698D2" d="M21.62 42.787c-.884 0-1.38.188-1.38.55 0 .348.496.542 1.38.542.883 0 1.385-.194 1.385-.543 0-.361-.502-.549-1.386-.549zm-2.45-2.483c1.118-.114 1.894-.582 1.987-1.125h-1.754v-.555h4.466v.555h-1.767c.093.543.87 1.01 1.988 1.125l-.241.542c-1.065-.114-1.894-.549-2.216-1.171-.328.622-1.158 1.057-2.216 1.171l-.247-.542zm2.804 1.4v.561c1.092.067 1.727.442 1.727 1.071 0 .683-.776 1.072-2.082 1.072-1.298 0-2.081-.39-2.081-1.072 0-.629.649-1.01 1.747-1.077v-.556h-2.39v-.55h5.469v.55h-2.39zM28.681 41.797h.69v-3.428h-.69v3.428zm-2.59 1.988h2.603V42.66H26.09v1.125zm-.677.549h3.957v-2.222h-3.957v2.222zm2.317-2.785c-.697-.228-1.212-.69-1.48-1.298-.274.649-.796 1.164-1.52 1.412l-.334-.542c.951-.321 1.493-1.119 1.493-1.941v-.583h.703v.583c0 .796.541 1.539 1.472 1.834l-.334.535zM34.243 43.183c0-.415-.516-.65-1.339-.65-.817 0-1.332.235-1.332.65 0 .421.515.655 1.332.655.823 0 1.339-.234 1.339-.655zm.683 0c0 .742-.797 1.198-2.022 1.198-1.225 0-2.015-.456-2.015-1.198 0-.737.79-1.192 2.015-1.192s2.022.455 2.022 1.192zm-2.136-3.22c-.375.964-1.265 1.64-2.57 2.021l-.275-.548c1.42-.396 2.203-1.139 2.323-2.082H30.26v-.556h2.745c0 .214-.02.416-.054.602h1.245v-1.038h.69v3.555h-.69v-.696H32.73v-.562h1.466v-.696H32.79zM38.54 39.755c.034.127.054.261.054.409 0 .147-.02.28-.061.408h1.152v-.817h-1.146zm1.178 3.474c0-.401-.495-.629-1.36-.629-.856 0-1.358.228-1.358.629 0 .415.502.636 1.359.636.864 0 1.359-.22 1.359-.636zm.683 0c0 .743-.784 1.178-2.042 1.178-1.259 0-2.035-.435-2.035-1.178 0-.736.776-1.171 2.035-1.171 1.258 0 2.042.435 2.042 1.17zm-3.374-2.195c.522 0 .91-.348.91-.87 0-.53-.388-.878-.91-.878-.536 0-.924.349-.924.878 0 .522.388.87.924.87zm1.198.094c-.281.308-.71.489-1.198.489-.904 0-1.58-.603-1.58-1.453 0-.857.676-1.46 1.58-1.46.495 0 .917.187 1.198.489h1.46v-.837h.689v3.568h-.69v-.796h-1.46zM43.526 44.227L43.746 44.227 43.746 38.47 43.526 38.47zM49.945 43.276c0-.375-.536-.595-1.426-.595-.896 0-1.446.22-1.446.595 0 .382.55.603 1.446.603.89 0 1.426-.221 1.426-.603zm-.194-2.584c.154-.596.16-1.03.16-1.486h-3.467v-.556h4.15v.509c0 .482 0 .985-.167 1.607l-.676-.074zm.884 2.584c0 .703-.83 1.132-2.116 1.132-1.305 0-2.128-.43-2.128-1.132 0-.696.823-1.125 2.128-1.125 1.286 0 2.116.429 2.116 1.125zm.629-2.148v.555h-5.449v-.555h2.142v-1.112h.696v1.112h2.61zM55.614 39.882v-1.52h.69v3.602h-.69v-1.52h-1.072v-.562h1.072zm.027 3.387c0-.394-.496-.61-1.346-.61-.864 0-1.352.216-1.352.61 0 .395.488.61 1.352.61.85 0 1.346-.215 1.346-.61zm.689 0c0 .723-.777 1.144-2.035 1.144-1.265 0-2.041-.42-2.041-1.144 0-.716.776-1.144 2.041-1.144 1.258 0 2.035.428 2.035 1.144zm-1.78-1.499c-.67-.234-1.152-.71-1.407-1.292-.267.663-.776 1.198-1.492 1.452l-.355-.548c.937-.335 1.48-1.138 1.48-1.968v-.087h-1.279v-.556h3.233v.556h-1.259v.08c0 .756.516 1.506 1.42 1.82l-.341.543zM61.791 38.362v6.051h-.696V41.31h-1.298v-.57h1.298v-2.377h.696zM59.823 39c0 1.774-.656 3.293-2.704 4.31l-.368-.535c1.573-.776 2.256-1.84 2.369-3.213h-2.102V39h2.805zM67.427 38.362v6.039h-.656v-3.14h-.716v2.845h-.65v-5.622h.65v2.215h.716v-2.337h.656zm-4.304 4.078c.629-.008 1.218-.04 1.908-.155l.06.562c-.81.142-1.48.162-2.223.162h-.408v-2.356h1.593v-1.106h-1.607v-.562h2.27v2.223h-1.593v1.232zM72.072 44.414h.689v-6.051h-.69v6.05zm-3.24-4.525c0 .428.374.703.897.703.529 0 .896-.275.896-.703 0-.422-.367-.696-.896-.696-.523 0-.897.274-.897.696zm-.663 0c0-.743.656-1.265 1.56-1.265.903 0 1.56.522 1.56 1.265 0 .75-.657 1.272-1.56 1.272-.904 0-1.56-.522-1.56-1.272zm3.555 2.008c-.53.107-1.085.167-1.62.207v2.123h-.69v-2.082c-.569.02-1.104.026-1.573.026l-.08-.568c1.09 0 2.61-.02 3.916-.215l.047.509zM77.567 41.91v-3.554h.69v4.599h-.69v-.563h-1.185v-.481h1.185zm-3.233-2.255c0 .342.34.555.843.555.496 0 .836-.213.836-.555 0-.342-.34-.556-.836-.556-.502 0-.843.214-.843.556zm4.063 4.076v.563h-4.365v-1.787h.69v1.224h3.675zm-4.72-4.076c0-.643.61-1.064 1.5-1.064.883 0 1.492.421 1.492 1.064 0 .642-.609 1.064-1.492 1.064-.89 0-1.5-.422-1.5-1.064zm1.225 1.982c-.575.026-1.124.033-1.6.033l-.086-.562c1.11-.008 2.597-.02 3.876-.18l.053.494c-.509.087-1.037.147-1.553.174v1.164h-.69v-1.123zM83.014 44.407h.697v-6.05h-.697v6.05zm-2.289-2.764c.482 0 .817-.228.817-.603 0-.368-.335-.595-.817-.595-.489 0-.823.227-.823.595 0 .375.334.603.823.603zm1.821-2.022h-3.655v-.555h1.487v-.696h.688v.696h1.48v.555zm-1.48 3.093c.543-.033 1.091-.067 1.607-.141l.047.503c-1.332.227-2.765.247-3.863.247l-.086-.569c.482 0 1.037 0 1.607-.02v-.589c-.684-.107-1.132-.522-1.132-1.105 0-.676.602-1.124 1.479-1.124.87 0 1.473.448 1.473 1.124 0 .59-.449.998-1.132 1.105v.569z" mask="url(#uamy55pu6d)"/>
                    <path fill="#FFF" d="M52.285 15.415c.312 0 .553-.038.722-.114.17-.075.254-.165.254-.27v-.1c0-.105-.084-.195-.254-.27-.17-.076-.41-.114-.722-.114-.313 0-.553.038-.722.113-.17.076-.254.166-.254.272v.098c0 .106.085.196.254.271.17.076.41.114.722.114zm-1.489 3.287V17.58h2.494v-.326h-2.518v-.4h2.997v1.115h-2.494v.335h2.627v.4h-3.106zm1.49-4.559c.225 0 .429.019.608.057.18.037.33.09.456.16.125.07.22.151.288.247.067.095.101.2.101.314v.12c0 .206-.107.38-.32.519-.214.14-.51.223-.887.25v.305h1.838v.404H50.2v-.404h1.839v-.306c-.378-.026-.674-.109-.887-.25-.215-.138-.321-.312-.321-.518v-.12c0-.114.033-.22.1-.314.068-.096.165-.178.29-.247.124-.07.276-.123.455-.16.18-.038.382-.057.61-.057zM57.239 14.222h.478v1.592h.488v-1.685h.478v4.544h-.478v-2.435h-.488v2.213h-.478v-4.23zm-1.37 2.908c.09 0 .172-.016.243-.047.071-.03.13-.071.178-.12.048-.05.084-.104.108-.163.025-.059.038-.118.038-.178v-.187c0-.059-.013-.118-.038-.177-.024-.06-.06-.114-.108-.163-.048-.05-.107-.09-.178-.12-.07-.032-.152-.048-.243-.048-.092 0-.174.016-.244.048-.072.03-.13.07-.178.12-.047.05-.084.104-.108.163-.025.059-.037.118-.037.177v.187c0 .06.012.12.037.178.024.059.06.113.108.163.047.049.106.09.178.12.07.031.152.047.244.047zm0-1.602c.15 0 .288.024.411.072.124.048.23.112.318.194.089.083.157.176.205.282.047.104.07.216.07.335v.236c0 .119-.023.23-.07.335-.048.105-.116.199-.205.281-.089.082-.194.147-.318.194-.123.048-.26.073-.411.073-.152 0-.29-.025-.412-.073-.123-.047-.23-.112-.318-.194-.089-.082-.157-.176-.204-.28-.048-.106-.072-.217-.072-.336v-.236c0-.12.024-.23.072-.335.047-.106.115-.2.204-.282.088-.082.195-.146.318-.194.123-.048.26-.072.412-.072zm1.078-.227H54.7v-.409h.912v-.636h.478v.636h.857v.41zM62.508 18.674h.483v-4.545h-.483v4.545zm-1.8-2.476c.102 0 .2-.015.29-.049.09-.033.168-.076.236-.13.067-.055.12-.118.157-.19.038-.072.057-.148.057-.227v-.168c0-.081-.019-.16-.057-.233-.037-.075-.09-.138-.157-.19-.068-.053-.147-.095-.237-.126s-.187-.046-.288-.046c-.105 0-.202.015-.29.046-.09.031-.168.073-.235.126-.067.052-.12.115-.158.19-.038.074-.056.152-.056.233v.168c0 .08.018.155.056.227.038.072.09.135.158.19.067.054.145.097.235.13.088.034.185.05.29.05zm0 .424c-.186 0-.354-.027-.502-.083-.148-.056-.274-.13-.38-.222-.105-.092-.185-.198-.24-.316-.057-.118-.084-.242-.084-.37v-.226c0-.128.027-.252.084-.37.055-.118.135-.223.24-.316.106-.09.232-.165.38-.221.148-.056.316-.083.503-.083s.355.027.503.083c.148.056.274.13.38.221.104.093.185.198.24.316.057.118.085.242.085.37v.226c0 .128-.028.252-.084.37-.056.118-.137.224-.241.316-.106.092-.232.166-.38.222-.148.056-.316.083-.503.083zm1.564.987c-.208.019-.42.036-.636.051-.217.015-.447.027-.688.037-.242.01-.499.017-.774.022-.274.005-.573.007-.894.007v-.423c.325 0 .623-.002.894-.005s.525-.01.762-.018c.236-.008.46-.019.67-.031.21-.014.418-.03.62-.05l.046.41zM67.708 17.712c-.177.17-.371.289-.582.355-.21.065-.435.098-.674.098-.215 0-.408-.032-.582-.096-.175-.064-.324-.162-.45-.293-.124-.132-.22-.295-.29-.488-.069-.194-.103-.422-.103-.685v-.538c0-.26.034-.486.104-.68.068-.194.166-.356.292-.488.127-.131.277-.23.451-.295.174-.067.367-.098.578-.098.246 0 .46.029.645.09.184.061.36.157.527.289l-.251.399c-.16-.132-.314-.22-.46-.262-.148-.042-.3-.064-.461-.064-.136 0-.26.023-.373.069-.113.046-.212.117-.296.213-.084.095-.148.216-.194.364-.047.148-.07.324-.07.527v.41c0 .203.023.379.07.527.046.148.11.27.194.365.084.095.183.166.296.212.113.046.237.069.373.069.17 0 .34-.026.512-.08.17-.052.33-.15.478-.294l.266.374zM70.883 17.712c-.178.17-.371.289-.582.355-.21.065-.436.098-.675.098-.214 0-.407-.032-.581-.096-.176-.064-.325-.162-.45-.293-.125-.132-.222-.295-.29-.488-.07-.194-.104-.422-.104-.685v-.538c0-.26.034-.486.104-.68.068-.194.166-.356.293-.488.127-.131.277-.23.45-.295.175-.067.367-.098.578-.098.246 0 .46.029.645.09s.36.157.528.289l-.252.399c-.16-.132-.314-.22-.46-.262-.147-.042-.3-.064-.461-.064-.135 0-.259.023-.373.069-.113.046-.211.117-.295.213-.084.095-.149.216-.194.364-.047.148-.07.324-.07.527v.41c0 .203.023.379.07.527.045.148.11.27.194.365.084.095.182.166.295.212.114.046.238.069.373.069.17 0 .342-.026.512-.08.172-.052.33-.15.479-.294l.266.374zM72.13 15.548c-.016-.037-.032-.071-.044-.106-.014-.034-.027-.07-.04-.106l-.044-.123-.055-.159v3.057h-.463v-3.554h.72l.985 2.326.962-2.326h.715v3.554h-.468v-3.057c-.017.067-.033.122-.048.166l-.039.121c-.012.036-.024.07-.037.103l-.044.104-.848 1.971h-.414l-.838-1.971zM55.08 23.322h.65v-2.508h.957v7.356h-.958v-3.986h-.648v3.63h-.957v-6.85h.957v2.358zm-1.723-1.812v.862h-1.851v2.983h.229c.321 0 .646-.008.973-.024.327-.016.656-.05.989-.103l.102.854c-.321.059-.663.095-1.024.111s-.708.024-1.04.024h-1.218V21.51h2.84zM62.99 22.491h.966v.87h-.965v1.804h-.997v-4.35h.997v1.676zm-2.23 3.52c-.2 0-.38.021-.538.063-.158.043-.291.097-.399.162-.108.066-.192.139-.25.218-.057.08-.086.158-.086.237v.206c0 .079.029.158.087.237.057.08.14.152.25.217.107.067.24.12.398.163.158.042.338.063.538.063s.38-.021.538-.063c.159-.042.291-.096.4-.163.107-.065.19-.138.249-.217.057-.079.087-.158.087-.237v-.206c0-.079-.03-.157-.087-.237-.059-.08-.142-.152-.25-.218-.108-.065-.24-.12-.399-.162-.158-.042-.338-.063-.538-.063zm0 2.38c-.338 0-.645-.033-.922-.102-.277-.069-.513-.166-.712-.293-.197-.126-.35-.278-.458-.454-.108-.177-.162-.371-.162-.582v-.332c0-.211.054-.405.162-.581.108-.177.26-.329.458-.455.199-.127.435-.224.712-.293.277-.068.584-.103.922-.103.338 0 .645.035.922.103.277.069.513.166.712.293.198.126.35.278.458.455.108.176.162.37.162.58v.333c0 .21-.054.405-.162.582-.108.176-.26.328-.458.454-.199.127-.435.224-.712.293-.277.069-.584.103-.922.103zm-1.432-4.832c-.026.063-.074.135-.142.213-.068.08-.185.19-.348.333-.184.158-.375.318-.574.478-.197.161-.407.326-.628.495l-.594-.736c.232-.169.443-.33.633-.483.19-.152.38-.316.57-.49.163-.148.294-.319.392-.514.097-.195.146-.422.146-.68v-1.06h1.012v1.028c0 .132.007.25.02.352.013.103.04.2.079.289.04.09.093.176.162.256.069.083.156.166.261.25.153.126.33.264.534.411.203.147.404.29.606.427l-.554.696c-.185-.126-.361-.25-.53-.375-.169-.124-.328-.245-.475-.36-.138-.105-.26-.205-.368-.297-.108-.092-.173-.17-.194-.233h-.008zM50.54 8.225c0-.789.226-1.35.678-1.681.29-.206.638-.308 1.044-.308.522 0 .947.152 1.274.455.35.323.525.763.525 1.324 0 .438-.118.819-.357 1.14-.145.201-.385.43-.721.687l-.28.21c-.318.247-.526.416-.624.504-.149.136-.244.254-.286.357h2.283v.939h-3.607c.024-.425.089-.76.196-1.002.182-.406.53-.812 1.044-1.218l.105-.091c.49-.368.8-.63.931-.784.196-.224.294-.483.294-.777 0-.234-.06-.425-.182-.575-.136-.172-.322-.259-.56-.259-.318 0-.535.13-.651.392-.066.15-.1.379-.105.687h-1.002zM55.861 10.661c.108.308.308.462.602.462s.497-.154.61-.462c.111-.29.167-.802.167-1.54 0-.756-.056-1.28-.168-1.568-.112-.304-.315-.455-.61-.455-.293 0-.493.151-.601.455-.098.284-.147.807-.147 1.568 0 .742.049 1.256.147 1.54m-.777-3.732c.294-.453.754-.679 1.379-.679.626 0 1.085.226 1.38.679.298.462.448 1.193.448 2.192 0 .985-.15 1.708-.448 2.17-.295.462-.754.694-1.38.694-.625 0-1.085-.232-1.379-.694-.3-.462-.448-1.185-.448-2.17 0-.995.149-1.725.448-2.192M58.497 8.225c0-.789.227-1.35.68-1.681.29-.206.637-.308 1.043-.308.523 0 .948.152 1.275.455.35.323.525.763.525 1.324 0 .438-.12.819-.357 1.14-.145.201-.386.43-.721.687l-.28.21c-.319.247-.526.416-.624.504-.15.136-.245.254-.287.357h2.283v.939h-3.606c.023-.425.088-.76.195-1.002.183-.406.53-.812 1.044-1.218l.105-.091c.49-.368.8-.63.931-.784.196-.224.294-.483.294-.777 0-.234-.06-.425-.181-.575-.136-.172-.323-.259-.56-.259-.318 0-.536.13-.652.392-.066.15-.1.379-.105.687h-1.002z" mask="url(#uamy55pu6d)"/>
                    <path fill="#FFF" d="M63.246 10.661c.107.308.308.462.601.462.295 0 .498-.154.61-.462.112-.29.168-.802.168-1.54 0-.756-.056-1.28-.168-1.568-.112-.304-.315-.455-.61-.455-.293 0-.494.151-.601.455-.098.284-.147.807-.147 1.568 0 .742.049 1.256.147 1.54m-.777-3.732c.293-.453.753-.679 1.378-.679.626 0 1.086.226 1.38.679.298.462.448 1.193.448 2.192 0 .985-.15 1.708-.448 2.17-.294.462-.754.694-1.38.694-.625 0-1.085-.232-1.378-.694-.3-.462-.449-1.185-.449-2.17 0-.995.15-1.725.449-2.192" mask="url(#uamy55pu6d)"/>
                </g>
            </g>
        </g>
    </g>
</svg>
