<?xml version="1.0" encoding="UTF-8"?>
<svg width="42px" height="42px" viewBox="0 0 42 42" version="1.1" xmlns="http://www.w3.org/2000/svg" xmlns:xlink="http://www.w3.org/1999/xlink">
    <title>btn_popup_close</title>
    <g id="Page-1" stroke="none" stroke-width="1" fill="none" fill-rule="evenodd">
        <g id="PC_더마켓_4_POP_배송비절약상품" transform="translate(-1189.000000, -361.000000)">
            <g id="Group" transform="translate(1189.000000, 361.000000)">
                <rect id="Rectangle" fill="#FFFFFF" x="0" y="0" width="42" height="42"></rect>
                <path d="M21.3605263,5.96842105 C21.7747399,5.96842105 22.1105263,6.30420749 22.1105263,6.71842105 L22.1105263,34.0184211 C22.1105263,34.4326346 21.7747399,34.7684211 21.3605263,34.7684211 C20.9463128,34.7684211 20.6105263,34.4326346 20.6105263,34.0184211 L20.6105263,6.71842105 C20.6105263,6.30420749 20.9463128,5.96842105 21.3605263,5.96842105 Z" id="Rectangle" fill="#000000" transform="translate(21.360526, 20.368421) rotate(-45.000000) translate(-21.360526, -20.368421) "></path>
                <path d="M21.3605263,5.96842105 C21.7747399,5.96842105 22.1105263,6.30420749 22.1105263,6.71842105 L22.1105263,34.0184211 C22.1105263,34.4326346 21.7747399,34.7684211 21.3605263,34.7684211 C20.9463128,34.7684211 20.6105263,34.4326346 20.6105263,34.0184211 L20.6105263,6.71842105 C20.6105263,6.30420749 20.9463128,5.96842105 21.3605263,5.96842105 Z" id="Rectangle-Copy-10" fill="#000000" transform="translate(21.360526, 20.368421) scale(-1, 1) rotate(-45.000000) translate(-21.360526, -20.368421) "></path>
            </g>
        </g>
    </g>
</svg>