<svg xmlns="http://www.w3.org/2000/svg" width="18" height="15" viewBox="0 0 18 15">
    <defs>
        <linearGradient id="yp7jswy4ca" x1="65.906%" x2="65.447%" y1="2.348%" y2="100%">
            <stop offset=".768%" stop-color="#F4B526"/>
            <stop offset="19.791%" stop-color="#F2B723"/>
            <stop offset="56.851%" stop-color="#FBDF49"/>
            <stop offset="100%" stop-color="#F6C02B"/>
        </linearGradient>
        <linearGradient id="skacutcimb" x1="50%" x2="50%" y1="2.169%" y2="99.812%">
            <stop offset="0%" stop-color="#F3B525"/>
            <stop offset="27.576%" stop-color="#F2B523"/>
            <stop offset="70.424%" stop-color="#F1AE27"/>
            <stop offset="100%" stop-color="#E67E17"/>
        </linearGradient>
    </defs>
    <g fill="none" fill-rule="evenodd">
        <g>
            <g>
                <g>
                    <g>
                        <path fill="#F7C832" d="M3.805 0L0 5.393 9.001 15 18 5.39 14.118 0H3.805zm1.087 5.39l1.28-2.14h5.584l1.35 2.138-4.105 4.518L4.892 5.39z" transform="translate(-1046.000000, -125.000000) translate(0.000000, 10.000000) translate(0.000000, 95.000000) translate(1046.000000, 20.000000)"/>
                        <g>
                            <path fill="url(#yp7jswy4ca)" d="M0.002 5.39L0.013 5.398 0 5.398 6.299 12.122 9.039 15 11.24 12.599 8.867 9.731 4.892 5.398 6.172 3.252 8.867 3.252 8.867 0 3.805 0z" transform="translate(-1046.000000, -125.000000) translate(0.000000, 10.000000) translate(0.000000, 95.000000) translate(1046.000000, 20.000000)"/>
                            <path fill="url(#skacutcimb)" d="M8.572 0L8.571 3.244 11.52 3.244 12.98 5.385 8.977 9.906 11.255 12.601 18 5.385 17.986 5.385 17.999 5.377 14.12 0z" transform="translate(-1046.000000, -125.000000) translate(0.000000, 10.000000) translate(0.000000, 95.000000) translate(1046.000000, 20.000000)"/>
                        </g>
                    </g>
                </g>
            </g>
        </g>
    </g>
</svg>
