<?xml version="1.0" encoding="utf-8"?>
<!-- Generator: Adobe Illustrator 25.4.1, SVG Export Plug-In . SVG Version: 6.00 Build 0)  -->
<svg version="1.1" id="Layer_1" xmlns="http://www.w3.org/2000/svg" xmlns:xlink="http://www.w3.org/1999/xlink" x="0px" y="0px"
	 viewBox="0 0 110 70" style="enable-background:new 0 0 110 70;" xml:space="preserve">
<style type="text/css">
	.st0{enable-background:new    ;}
	.st1{fill:#DDDDDD;}
	.st2{fill:#FEAA08;}
</style>
<desc>Created with Sketch.</desc>
<g id="Page-1">
	<g id="PC_더마켓" transform="translate(-848.000000, -3847.000000)">
		<g id="Stacked-Group_2_" transform="translate(319.000000, 690.000000)">
			<g id="카테고리인기상품" transform="translate(0.000000, 2664.000000)">
				<g id="Stacked-Group_1_" transform="translate(529.000000, 143.000000)">
					<g id="별점" transform="translate(0.000000, 348.000000)">
						<g id="Padding-Group-51">
							<g id="Stacked-Group">
								<g class="st0">
									<path class="st1" d="M14,39h8l-6.5,4.9l2.5,7.7L11.4,47l-6.7,4.6l2.5-7.7L0.6,39h8.2l2.6-7.7L14,39z"/>
									<path class="st1" d="M35.8,39h8.1l-6.5,4.9l2.5,7.7L33.3,47l-6.7,4.6l2.5-7.7L22.4,39h8.2l2.6-7.7L35.8,39z"/>
									<path class="st1" d="M57.7,39h8.1l-6.5,4.9l2.5,7.7L55.2,47l-6.7,4.6l2.5-7.7L44.3,39h8.2l2.6-7.7L57.7,39z"/>
									<path class="st1" d="M79.5,39h8.1L81,43.9l2.5,7.7L76.9,47l-6.7,4.6l2.5-7.7L66.1,39h8.2l2.6-7.7L79.5,39z"/>
								</g>
								<g class="st0">
									<path class="st1" d="M101.3,39h8.1l-6.5,4.9l2.5,7.7L98.8,47L92,51.6l2.5-7.7L88,39h8.2l2.6-7.7L101.3,39z"/>
								</g>
							</g>
						</g>
					</g>
				</g>
			</g>
		</g>
	</g>
</g>
<g id="Page-1_2_">
	<g id="PC_더마켓_2_" transform="translate(-848.000000, -3847.000000)">
		<g id="Stacked-Group_6_" transform="translate(319.000000, 690.000000)">
			<g id="카테고리인기상품_2_" transform="translate(0.000000, 2664.000000)">
				<g id="Stacked-Group_7_" transform="translate(529.000000, 143.000000)">
					<g id="별점_2_" transform="translate(0.000000, 348.000000)">
						<g id="Padding-Group-51_2_">
							<g id="Stacked-Group_8_">
								<g class="st0">
									<path class="st1" d="M23.7,7.1h5.1l-4.1,3.1l1.6,4.9l-4.3-3L17.8,15l1.6-4.9L15.2,7h5.2L22,2.2L23.7,7.1z"/>
								</g>
							</g>
						</g>
					</g>
				</g>
			</g>
		</g>
	</g>
</g>
<g id="Page-1_4_">
	<g id="PC_더마켓_4_" transform="translate(-848.000000, -3847.000000)">
		<g id="Stacked-Group_12_" transform="translate(319.000000, 690.000000)">
			<g id="카테고리인기상품_4_" transform="translate(0.000000, 2664.000000)">
				<g id="Stacked-Group_13_" transform="translate(529.000000, 143.000000)">
					<g id="별점_4_" transform="translate(0.000000, 348.000000)">
						<g id="Padding-Group-51_4_">
							<g id="Stacked-Group_14_">
								<g class="st0">
									<path class="st1" d="M38.8,7.1h5.1l-4.1,3.1l1.6,4.9l-4.2-2.9L32.9,15l1.6-4.9L30.3,7h5.2l1.6-4.8L38.8,7.1z"/>
								</g>
							</g>
						</g>
					</g>
				</g>
			</g>
		</g>
	</g>
</g>
<g id="Page-1_5_">
	<g id="PC_더마켓_5_" transform="translate(-848.000000, -3847.000000)">
		<g id="Stacked-Group_15_" transform="translate(319.000000, 690.000000)">
			<g id="카테고리인기상품_5_" transform="translate(0.000000, 2664.000000)">
				<g id="Stacked-Group_16_" transform="translate(529.000000, 143.000000)">
					<g id="별점_5_" transform="translate(0.000000, 348.000000)">
						<g id="Padding-Group-51_5_">
							<g id="Stacked-Group_17_">
								<g class="st0">
									<path class="st1" d="M53.8,7.1h5.1l-4.1,3.1l1.6,4.9l-4.2-2.9L47.9,15l1.6-4.9L45.3,7h5.2l1.6-4.8L53.8,7.1z"/>
								</g>
							</g>
						</g>
					</g>
				</g>
			</g>
		</g>
	</g>
</g>
<g id="Page-1_6_">
	<g id="PC_더마켓_6_" transform="translate(-848.000000, -3847.000000)">
		<g id="Stacked-Group_18_" transform="translate(319.000000, 690.000000)">
			<g id="카테고리인기상품_6_" transform="translate(0.000000, 2664.000000)">
				<g id="Stacked-Group_19_" transform="translate(529.000000, 143.000000)">
					<g id="별점_6_" transform="translate(0.000000, 348.000000)">
						<g id="Padding-Group-51_6_">
							<g id="Stacked-Group_20_">
								<g class="st0">
									<path class="st1" d="M68.7,7.1h5.1l-4.1,3.1l1.6,4.9l-4.2-2.9L62.8,15l1.6-4.9L60.2,7h5.2L67,2.2L68.7,7.1z"/>
								</g>
							</g>
						</g>
					</g>
				</g>
			</g>
		</g>
	</g>
</g>
<g id="Page-1_3_">
	<g id="PC_더마켓_3_" transform="translate(-848.000000, -3847.000000)">
		<g id="Stacked-Group_9_" transform="translate(319.000000, 690.000000)">
			<g id="카테고리인기상품_3_" transform="translate(0.000000, 2664.000000)">
				<g id="Stacked-Group_10_" transform="translate(529.000000, 143.000000)">
					<g id="별점_3_" transform="translate(0.000000, 348.000000)">
						<g id="Padding-Group-51_3_">
							<g id="Stacked-Group_11_">
								<g class="st0">
									<path class="st1" d="M8.7,7.1h5.1l-4.1,3.1l1.6,4.9l-4.3-3L2.8,15l1.6-4.9l-4.2-3h5.2L7,2.2L8.7,7.1z"/>
								</g>
							</g>
						</g>
					</g>
				</g>
			</g>
		</g>
	</g>
</g>
<g id="Page-1_11_">
	<g id="PC_더마켓_11_" transform="translate(-848.000000, -3847.000000)">
		<g id="Stacked-Group_33_" transform="translate(319.000000, 690.000000)">
			<g id="카테고리인기상품_11_" transform="translate(0.000000, 2664.000000)">
				<g id="Stacked-Group_34_" transform="translate(529.000000, 143.000000)">
					<g id="별점_11_" transform="translate(0.000000, 348.000000)">
						<g id="Padding-Group-51_11_">
							<g id="Stacked-Group_35_">
								<g class="st0">
									<path class="st2" d="M23.7,21h5.1l-4.1,3.1l1.6,4.9L22,26l-4.2,2.9l1.6-4.9l-4.1-3h5.2l1.6-4.8L23.7,21z"/>
								</g>
							</g>
						</g>
					</g>
				</g>
			</g>
		</g>
	</g>
</g>
<g id="Page-1_10_">
	<g id="PC_더마켓_10_" transform="translate(-848.000000, -3847.000000)">
		<g id="Stacked-Group_30_" transform="translate(319.000000, 690.000000)">
			<g id="카테고리인기상품_10_" transform="translate(0.000000, 2664.000000)">
				<g id="Stacked-Group_31_" transform="translate(529.000000, 143.000000)">
					<g id="별점_10_" transform="translate(0.000000, 348.000000)">
						<g id="Padding-Group-51_10_">
							<g id="Stacked-Group_32_">
								<g class="st0">
									<path class="st2" d="M38.8,21h5.1l-4.1,3.1l1.6,4.9l-4.3-3l-4.2,2.9l1.6-4.9l-4.2-3h5.2l1.6-4.8L38.8,21z"/>
								</g>
							</g>
						</g>
					</g>
				</g>
			</g>
		</g>
	</g>
</g>
<g id="Page-1_9_">
	<g id="PC_더마켓_9_" transform="translate(-848.000000, -3847.000000)">
		<g id="Stacked-Group_27_" transform="translate(319.000000, 690.000000)">
			<g id="카테고리인기상품_9_" transform="translate(0.000000, 2664.000000)">
				<g id="Stacked-Group_28_" transform="translate(529.000000, 143.000000)">
					<g id="별점_9_" transform="translate(0.000000, 348.000000)">
						<g id="Padding-Group-51_9_">
							<g id="Stacked-Group_29_">
								<g class="st0">
									<path class="st2" d="M53.8,21h5.1l-4.1,3.1l1.6,4.9l-4.2-3L48,28.9l1.6-4.9l-4.2-3h5.2l1.6-4.8L53.8,21z"/>
								</g>
							</g>
						</g>
					</g>
				</g>
			</g>
		</g>
	</g>
</g>
<g id="Page-1_8_">
	<g id="PC_더마켓_8_" transform="translate(-848.000000, -3847.000000)">
		<g id="Stacked-Group_24_" transform="translate(319.000000, 690.000000)">
			<g id="카테고리인기상품_8_" transform="translate(0.000000, 2664.000000)">
				<g id="Stacked-Group_25_" transform="translate(529.000000, 143.000000)">
					<g id="별점_8_" transform="translate(0.000000, 348.000000)">
						<g id="Padding-Group-51_8_">
							<g id="Stacked-Group_26_">
								<g class="st0">
									<path class="st2" d="M68.7,21h5.1l-4.1,3.1l1.6,4.9l-4.2-3l-4.2,2.9l1.6-4.9l-4.2-3h5.2l1.6-4.8L68.7,21z"/>
								</g>
							</g>
						</g>
					</g>
				</g>
			</g>
		</g>
	</g>
</g>
<g id="Page-1_7_">
	<g id="PC_더마켓_7_" transform="translate(-848.000000, -3847.000000)">
		<g id="Stacked-Group_21_" transform="translate(319.000000, 690.000000)">
			<g id="카테고리인기상품_7_" transform="translate(0.000000, 2664.000000)">
				<g id="Stacked-Group_22_" transform="translate(529.000000, 143.000000)">
					<g id="별점_7_" transform="translate(0.000000, 348.000000)">
						<g id="Padding-Group-51_7_">
							<g id="Stacked-Group_23_">
								<g class="st0">
									<path class="st2" d="M8.7,21h5.1l-4.1,3.1l1.6,4.9L7,26l-4.2,2.9L4.4,24l-4.2-3h5.2L7,16.2L8.7,21z"/>
								</g>
							</g>
						</g>
					</g>
				</g>
			</g>
		</g>
	</g>
</g>
<g id="Page-1_1_">
	<g id="PC_더마켓_1_" transform="translate(-848.000000, -3847.000000)">
		<g id="Stacked-Group_3_" transform="translate(319.000000, 690.000000)">
			<g id="카테고리인기상품_1_" transform="translate(0.000000, 2664.000000)">
				<g id="Stacked-Group_4_" transform="translate(529.000000, 143.000000)">
					<g id="별점_1_" transform="translate(0.000000, 348.000000)">
						<g id="Padding-Group-51_1_">
							<g id="Stacked-Group_5_">
								<g class="st0">
									<path class="st2" d="M14,59.2h8l-6.5,4.9l2.5,7.7l-6.6-4.6l-6.7,4.6l2.5-7.7l-6.6-4.9h8.2l2.6-7.7L14,59.2z"/>
									<path class="st2" d="M35.8,59.2h8.1l-6.5,4.9l2.5,7.7l-6.6-4.6l-6.7,4.6l2.5-7.7l-6.6-4.9h8.2l2.6-7.7L35.8,59.2z"/>
									<path class="st2" d="M57.7,59.2h8.1l-6.5,4.9l2.5,7.7l-6.6-4.6l-6.7,4.6l2.5-7.7l-6.6-4.9h8.2l2.6-7.7L57.7,59.2z"/>
									<path class="st2" d="M79.5,59.2h8.1L81,64.1l2.5,7.7l-6.6-4.6l-6.7,4.6l2.5-7.7l-6.6-4.9h8.2l2.6-7.7L79.5,59.2z"/>
								</g>
								<g class="st0">
									<path class="st2" d="M101.3,59.2h8.1l-6.5,4.9l2.5,7.7l-6.6-4.6L92,71.8l2.5-7.7L88,59.2h8.2l2.6-7.7L101.3,59.2z"/>
								</g>
							</g>
						</g>
					</g>
				</g>
			</g>
		</g>
	</g>
</g>
</svg>
