<svg xmlns="http://www.w3.org/2000/svg" width="21.48" height="25.005" viewBox="0 0 21.48 25.005">
  <g id="icon_vege_s" transform="translate(-5.76 -1.248)">
    <g id="그룹_46" data-name="그룹 46" transform="translate(0 0)">
      <path id="패스_48" data-name="패스 48" d="M20.962,10.074c-.232-2.058-1.33-4.235-3.717-4.235h-.088a5.96,5.96,0,0,0-1.013.13,4.54,4.54,0,0,1-.908.109,3.38,3.38,0,0,1-.528-.064A2.937,2.937,0,0,0,11.446,4.78c-.066.018-.131.044-.2.067a5.38,5.38,0,0,1,3-3.738.583.583,0,1,0-.5-1.052,6.634,6.634,0,0,0-3.715,4.91,2.574,2.574,0,0,0-.474-.186A2.918,2.918,0,0,0,6.292,6.013a3.435,3.435,0,0,1-.533.065,4.638,4.638,0,0,1-.9-.109,5.935,5.935,0,0,0-1.01-.13C1.422,5.783.272,7.991.038,10.074a9.988,9.988,0,0,0,.809,4.463,18.454,18.454,0,0,1,.625,2.046,8.6,8.6,0,0,1,.16,1.464c.019.348.038.7.08,1.038A5.826,5.826,0,0,0,2.8,21.894a3.539,3.539,0,0,0,2.731,1.442q.109,0,.218-.009a3.587,3.587,0,0,0,1.623-.584A3.962,3.962,0,0,0,10.5,24.5a3.962,3.962,0,0,0,3.125-1.758,3.59,3.59,0,0,0,1.624.584c.072.006.145.008.217.008A3.538,3.538,0,0,0,18.2,21.895a5.828,5.828,0,0,0,1.091-2.811c.043-.342.062-.69.08-1.038a8.6,8.6,0,0,1,.16-1.464v0a18.485,18.485,0,0,1,.624-2.042,9.988,9.988,0,0,0,.809-4.463m-2.76,7.91c-.017.321-.034.642-.073.956a4.654,4.654,0,0,1-.858,2.243,2.33,2.33,0,0,1-1.929.982,2.426,2.426,0,0,1-1.079-.4,20.941,20.941,0,0,0,2.07-9.518A14.05,14.05,0,0,0,15.4,7.245a6.21,6.21,0,0,0,.965-.129,5.041,5.041,0,0,1,.82-.11h.057c2.044,0,2.48,2.444,2.565,3.2a8.975,8.975,0,0,1-.752,3.949,19.634,19.634,0,0,0-.661,2.169,9.6,9.6,0,0,0-.188,1.661m-7.7,5.352A3.1,3.1,0,0,1,8,21.611c-1.318-2.03-2.169-5.7-2.169-9.361,0-.075,0-.155,0-.24A11.07,11.07,0,0,1,7.12,6.864,1.922,1.922,0,0,1,8.75,5.834a1.851,1.851,0,0,1,.5.074,1.458,1.458,0,0,1,.355.149,1.818,1.818,0,0,0,1.79,0,1.462,1.462,0,0,1,.354-.147,1.8,1.8,0,0,1,2.129.963,11.311,11.311,0,0,1,1.285,5.382c0,.457-.013.914-.039,1.369-.024.417-.059.831-.1,1.24-.011.1-.023.2-.035.3a17.976,17.976,0,0,1-1.52,5.614,8.289,8.289,0,0,1-.471.835h0a3.1,3.1,0,0,1-2.5,1.722M3.728,21.182A4.652,4.652,0,0,1,2.87,18.94c-.039-.315-.056-.635-.073-.957a9.581,9.581,0,0,0-.187-1.659,19.605,19.605,0,0,0-.661-2.171A8.975,8.975,0,0,1,1.2,10.2c.085-.755.52-3.2,2.567-3.2h.057a5.012,5.012,0,0,1,.818.11,6.181,6.181,0,0,0,.965.129,14.051,14.051,0,0,0-.937,5.006,20.94,20.94,0,0,0,2.07,9.519,2.43,2.43,0,0,1-1.078.395,2.338,2.338,0,0,1-1.931-.983" transform="translate(6 1.501)" fill="#0c8050" stroke="#0c8050" stroke-width="0.5"/>
    </g>
  </g>
</svg>
