<svg xmlns="http://www.w3.org/2000/svg" width="21.2" height="18.2" viewBox="0 0 21.2 18.2">
  <g id="icon_review" transform="translate(1.2 1.2)">
    <path id="패스_50" data-name="패스 50" d="M100.812,36.022h5.277a.865.865,0,0,1,.865.865V46.4a.865.865,0,0,1-.865.865h-1.65a.512.512,0,0,0-.512.512v2.515l-3.115-2.679a1.209,1.209,0,0,0-.849-.348H95.278a.865.865,0,0,1-.865-.865V44.269" transform="translate(-86.954 -33.292)" fill="#1ba774"/>
    <g id="패스_51" data-name="패스 51" transform="translate(-3.5 -3.5)" fill="#1ba774" stroke-linecap="round" stroke-linejoin="round">
      <path d="M 6.488204002380371 18.94774436950684 C 6.233843803405762 18.94777488708496 5.991434097290039 18.85180473327637 5.805654048919678 18.67751502990723 C 5.605063915252686 18.48934364318848 5.494604110717773 18.23231506347656 5.494604110717773 17.95376396179199 L 5.494604110717773 15.41950416564941 L 4.364893913269043 15.41950416564941 C 3.557153940200806 15.41950416564941 2.900003910064697 14.75972461700439 2.900003910064697 13.94874477386475 L 2.900003910064697 4.370754241943359 C 2.900003910064697 3.559784412384033 3.557153940200806 2.900004386901855 4.364893913269043 2.900004386901855 L 16.47301483154297 2.900004386901855 C 17.28075408935547 2.900004386901855 17.93790435791016 3.559784412384033 17.93790435791016 4.370754241943359 L 17.93790435791016 13.94874477386475 C 17.93790435791016 14.75972461700439 17.28075408935547 15.41950416564941 16.47301483154297 15.41950416564941 L 10.48093414306641 15.41950416564941 C 10.33508396148682 15.41950416564941 10.19349384307861 15.48067474365234 10.09246349334717 15.58731460571289 L 7.203403949737549 18.6376953125 C 7.014013767242432 18.83761405944824 6.760034084320068 18.94770431518555 6.488204002380371 18.94774436950684 Z" stroke="none"/>
      <path d="M 4.364892959594727 3.500003814697266 C 3.887243270874023 3.500003814697266 3.500003814697266 3.88978385925293 3.500003814697266 4.370754241943359 L 3.500003814697266 13.94874477386475 C 3.500003814697266 14.42963409423828 3.887243270874023 14.81950378417969 4.364892959594727 14.81950378417969 L 5.612753868103027 14.81950378417969 C 5.878864288330078 14.81950378417969 6.094603538513184 15.03670501708984 6.094603538513184 15.30462455749512 L 6.094603538513184 17.95376396179199 C 6.0946044921875 18.30862426757812 6.524545669555664 18.48186492919922 6.767773628234863 18.22510528564453 L 9.65687370300293 15.1746940612793 C 9.871724128723145 14.94788455963135 10.16953372955322 14.81950378417969 10.48093414306641 14.81950378417969 L 16.47301483154297 14.81950378417969 C 16.95066452026367 14.81950378417969 17.33790397644043 14.42963409423828 17.33790397644043 13.94874477386475 L 17.33790397644043 4.370754241943359 C 17.33790397644043 3.88978385925293 16.95066452026367 3.500003814697266 16.47301483154297 3.500003814697266 L 4.364892959594727 3.500003814697266 M 4.364892959594727 2.300004959106445 L 16.47301483154297 2.300004959106445 C 17.61159324645996 2.300004959106445 18.53790283203125 3.228935241699219 18.53790283203125 4.370754241943359 L 18.53790283203125 13.94874477386475 C 18.53790283203125 15.0905647277832 17.61159324645996 16.01950454711914 16.47301483154297 16.01950454711914 L 10.5095386505127 16.01950454711914 L 7.639023780822754 19.05028533935547 C 7.335083961486816 19.37111473083496 6.926393508911133 19.54774475097656 6.488123893737793 19.54774475097656 C 5.609454154968262 19.54774475097656 4.894603729248047 18.83268356323242 4.894603729248047 17.95376396179199 L 4.894603729248047 16.01950454711914 L 4.364892959594727 16.01950454711914 C 3.226314544677734 16.01950454711914 2.300003051757812 15.0905647277832 2.300003051757812 13.94874477386475 L 2.300003051757812 4.370754241943359 C 2.300003051757812 3.228935241699219 3.226314544677734 2.300004959106445 4.364892959594727 2.300004959106445 Z" stroke="none" fill="#eee"/>
    </g>
    <path id="패스_49" data-name="패스 49" d="M48.213,25.077l.86,1.743a.334.334,0,0,0,.251.182l1.924.28a.334.334,0,0,1,.185.569l-1.392,1.357a.334.334,0,0,0-.1.3l.329,1.916a.334.334,0,0,1-.484.352l-1.721-.9a.333.333,0,0,0-.31,0l-1.721.9a.334.334,0,0,1-.484-.352l.329-1.916a.334.334,0,0,0-.1-.3L44.4,27.852a.334.334,0,0,1,.185-.569L46.5,27a.334.334,0,0,0,.251-.182l.86-1.743a.334.334,0,0,1,.6,0" transform="translate(-40.967 -23.162)" fill="#fff"/>
  </g>
</svg>
