<svg xmlns="http://www.w3.org/2000/svg" width="45" height="40" viewBox="0 0 45 40">
    <g fill="none" fill-rule="evenodd" stroke="#444" stroke-width="2">
        <path stroke-linecap="round" d="M6.954 25.415h-4.12C1.27 25.415 0 24.145 0 22.58v-7.855c0-.29.089-.573.255-.81l5.284-6.79c.26-.374.687-.601 1.144-.606h8.222M27.63 25.415H15.417M15.224 17.72V3.833C15.224 2.27 16.494 1 18.06 1h19.822c1.566 0 2.835 1.27 2.835 2.835V22.58c0 1.566-1.269 2.835-2.835 2.835h-2.835" transform="translate(2 6)"/>
        <path d="M11.698 29.168c-1.955.085-3.61-1.432-3.694-3.387-.085-1.955 1.43-3.608 3.386-3.693 1.955-.085 3.609 1.43 3.694 3.386.085 1.955-1.431 3.609-3.386 3.694zM31.327 29.168c-1.955.085-3.61-1.432-3.694-3.387-.085-1.955 1.43-3.608 3.386-3.693 1.955-.085 3.609 1.43 3.694 3.386.085 1.955-1.431 3.609-3.386 3.694z" transform="translate(2 6)"/>
    </g>
</svg>
