<svg xmlns="http://www.w3.org/2000/svg" width="40" height="40" viewBox="0 0 40 40">
    <g fill="none" fill-rule="evenodd">
        <g>
            <g transform="translate(-1400 -285) translate(1400 285)">
                <circle cx="20" cy="20" r="19.5" fill="#FFF" stroke="#DDD" opacity=".7"/>
                <g fill="#333" fill-rule="nonzero">
                    <path d="M13.913-.5c-1.717 0-3.109 1.392-3.109 3.109s1.392 3.108 3.109 3.108 3.109-1.391 3.109-3.108S15.63-.5 13.913-.5zm0 1c1.165 0 2.109.944 2.109 2.109 0 1.164-.944 2.108-2.109 2.108s-2.109-.944-2.109-2.108c0-1.165.944-2.109 2.109-2.109zM13.913 10.804c-1.717 0-3.109 1.392-3.109 3.109s1.392 3.109 3.109 3.109 3.109-1.392 3.109-3.109-1.392-3.109-3.109-3.109zm0 1c1.165 0 2.109.944 2.109 2.109s-.944 2.109-2.109 2.109-2.109-.944-2.109-2.109.944-2.109 2.109-2.109zM2.609 5.587C.892 5.587-.5 6.979-.5 8.696s1.392 3.108 3.109 3.108 3.108-1.391 3.108-3.108S4.326 5.587 2.61 5.587zm0 1c1.164 0 2.108.944 2.108 2.109 0 1.164-.944 2.108-2.108 2.108C1.444 10.804.5 9.86.5 8.696c0-1.165.944-2.109 2.109-2.109z" transform="translate(10.435 12)"/>
                    <path d="M12.174 5.217L12.174 6.087 4.348 6.087 4.348 5.217z" transform="translate(10.435 12) rotate(-25 8.26 5.717)"/>
                    <path d="M11.991 11.304L11.991 12.174 4.165 12.174 4.165 11.304z" transform="translate(10.435 12) rotate(25 8.078 11.804)"/>
                </g>
            </g>
        </g>
    </g>
</svg>
