<svg xmlns="http://www.w3.org/2000/svg" width="21.7" height="27.155" viewBox="0 0 21.7 27.155">
  <g id="icon_kcal_s" transform="translate(-3.381 -1.652)">
    <g id="그룹_25" data-name="그룹 25" transform="translate(4.231 2.502)">
      <path id="패스_47" data-name="패스 47" d="M3.5,19.77a9.542,9.542,0,0,0,8.158,9.185c-4.277-3.336-4.56-8.134.636-14.475-.321,1.522-.526,5.236.566,7.571.782,1.67,2.142,2.4,2.989,1.986.652-.32,1.07-1.35.259-2.992,4.669,1.657,2.811,5.97.469,7.616A9.436,9.436,0,0,0,23.5,19.77a8.2,8.2,0,0,0-.371-2.608,8.322,8.322,0,0,0-2.506-3.706c-.557,2.255-2.97,2.669-3.505.95-.292-.936.331-2.227.486-3.228C18.188,7.41,15.63,5.051,12.4,3.5,14.736,8.23,3.5,12.742,3.5,19.77Z" transform="translate(-3.5 -3.5)" fill="none" stroke="#0c8050" stroke-linecap="round" stroke-linejoin="round" stroke-width="1.7"/>
    </g>
  </g>
</svg>
