<svg xmlns="http://www.w3.org/2000/svg" width="22.693" height="22.581" viewBox="0 0 22.693 22.581">
  <g id="icon_easy_s" transform="translate(0.255 0.438)">
    <path id="패스_35" data-name="패스 35" d="M54.509,11.131l.595-.595s-.966-2.255.322-3.543L59.42,3" transform="translate(-43.196 -2.377)" fill="none" stroke="#0c8050" stroke-linecap="round" stroke-linejoin="round" stroke-width="1.5"/>
    <path id="패스_36" data-name="패스 36" d="M3.4,76.851h0a1.367,1.367,0,0,1,0-1.933l4.411-4.411" transform="translate(-2.378 -55.874)" fill="none" stroke="#0c8050" stroke-linecap="round" stroke-linejoin="round" stroke-width="1.5"/>
    <path id="패스_37" data-name="패스 37" d="M64.381,32.625l.478-.478s2.255.966,3.543-.322L72.4,27.831" transform="translate(-51.019 -22.055)" fill="none" stroke="#0c8050" stroke-linecap="round" stroke-linejoin="round" stroke-width="1.5"/>
    <path id="패스_38" data-name="패스 38" d="M4.929,84.351h0a1.367,1.367,0,0,0,1.933,0l4.379-4.379" transform="translate(-3.906 -63.374)" fill="none" stroke="#0c8050" stroke-linecap="round" stroke-linejoin="round" stroke-width="1.5"/>
    <line id="선_3" data-name="선 3" x1="4.244" y2="4.244" transform="translate(13.752 2.394)" fill="none" stroke="#0c8050" stroke-linecap="round" stroke-linejoin="round" stroke-width="1.5"/>
    <line id="선_4" data-name="선 4" x1="4.244" y2="4.244" transform="translate(15.362 4.005)" fill="none" stroke="#0c8050" stroke-linecap="round" stroke-linejoin="round" stroke-width="1.5"/>
    <path id="패스_39" data-name="패스 39" d="M14.444,18.207l5.114,5.114a1.481,1.481,0,0,0,2.094-2.094l-8.091-8.091L3.425,3c-1.4,3.491.726,7.707,5.187,12.168l3.318,3.318,1.705-1.706" transform="translate(-2.377 -2.377)" fill="none" stroke="#0c8050" stroke-linecap="round" stroke-linejoin="round" stroke-width="1.5"/>
  </g>
</svg>
