<svg xmlns="http://www.w3.org/2000/svg" xmlns:xlink="http://www.w3.org/1999/xlink" width="250" height="188" viewBox="0 0 250 188">
  <defs>
    <clipPath id="clip-path">
      <rect id="사각형_13" data-name="사각형 13" width="30" height="30" fill="#fff"/>
    </clipPath>
  </defs>
  <g id="img_brown_2" transform="translate(-338 -421)">
    <path id="합치기_4" data-name="합치기 4" d="M0,188V0H220V188ZM220,66l30,28-30,28Z" transform="translate(338 421)" fill="#c2894d"/>
    <g id="사각형_1408" data-name="사각형 1408" transform="translate(352 437)" fill="none" stroke="#fff" stroke-width="1" opacity="0.4">
      <rect width="192" height="156" stroke="none"/>
      <rect x="0.5" y="0.5" width="191" height="155" fill="none"/>
    </g>
    <g id="그룹_63" data-name="그룹 63" transform="translate(375 535.91)">
      <g id="그룹_6" data-name="그룹 6" transform="translate(0 0)" clip-path="url(#clip-path)">
        <path id="패스_15" data-name="패스 15" d="M26.35,9.741H22.165a13.437,13.437,0,0,0,.687-3.847c0-2.58-1.019-5.594-3.89-5.594-1.883,0-2.584,1.162-2.611,2.156-.123,4.42-1.962,5.979-1.955,5.979h0L7.643,13.009V11.838H.3V29.671H7.643v-1.6a28.154,28.154,0,0,0,8.48,1.6h1.136c6.065,0,10.14-1.764,10.14-4.392a4.481,4.481,0,0,0-.091-.8,3.263,3.263,0,0,0,1.227-2.543,3.719,3.719,0,0,0-.6-1.965A3.259,3.259,0,0,0,29.1,17.477a3.729,3.729,0,0,0-.6-1.966,3.261,3.261,0,0,0,1.165-2.492A3.3,3.3,0,0,0,26.35,9.741M5.545,27.573H2.4V13.936H5.545ZM27.152,13.908a2.163,2.163,0,0,0-.364,2.9,1.129,1.129,0,0,1,.217.667,1.167,1.167,0,0,1-.422.89,2.162,2.162,0,0,0-.364,2.9,1.135,1.135,0,0,1,.217.668,1.176,1.176,0,0,1-.447.91,2.213,2.213,0,0,0-.689,2.434c0,.674-2.314,2.294-8.042,2.294H16.122a27.3,27.3,0,0,1-8.48-1.732v-10.3l7.973-5.4c.108-.082,2.679-2.073,2.823-7.651a.935.935,0,0,1,.524-.093c1.772,0,1.792,3.355,1.792,3.5a13.736,13.736,0,0,1-1.05,4.48l-.633,1.464H26.35a1.2,1.2,0,0,1,1.223,1.18,1.166,1.166,0,0,1-.421.89" transform="translate(0.015 0.015)" fill="#fff"/>
        <path id="패스_16" data-name="패스 16" d="M26.35,9.741H22.165a13.437,13.437,0,0,0,.687-3.847c0-2.58-1.019-5.594-3.89-5.594-1.883,0-2.584,1.162-2.611,2.156-.123,4.42-1.962,5.979-1.955,5.979h0L7.643,13.009V11.838H.3V29.671H7.643v-1.6a28.154,28.154,0,0,0,8.48,1.6h1.136c6.065,0,10.14-1.764,10.14-4.392a4.481,4.481,0,0,0-.091-.8,3.263,3.263,0,0,0,1.227-2.543,3.719,3.719,0,0,0-.6-1.965A3.259,3.259,0,0,0,29.1,17.477a3.729,3.729,0,0,0-.6-1.966,3.261,3.261,0,0,0,1.165-2.492A3.3,3.3,0,0,0,26.35,9.741ZM5.545,27.573H2.4V13.936H5.545ZM27.152,13.908a2.163,2.163,0,0,0-.364,2.9,1.129,1.129,0,0,1,.217.667,1.167,1.167,0,0,1-.422.89,2.162,2.162,0,0,0-.364,2.9,1.135,1.135,0,0,1,.217.668,1.176,1.176,0,0,1-.447.91,2.213,2.213,0,0,0-.689,2.434c0,.674-2.314,2.294-8.042,2.294H16.122a27.3,27.3,0,0,1-8.48-1.732v-10.3l7.973-5.4c.108-.082,2.679-2.073,2.823-7.651a.935.935,0,0,1,.524-.093c1.772,0,1.792,3.355,1.792,3.5a13.736,13.736,0,0,1-1.05,4.48l-.633,1.464H26.35a1.2,1.2,0,0,1,1.223,1.18A1.166,1.166,0,0,1,27.152,13.908Z" transform="translate(0.015 0.015)" fill="#fff"/>
      </g>
    </g>
  </g>
</svg>
