<svg xmlns="http://www.w3.org/2000/svg" xmlns:xlink="http://www.w3.org/1999/xlink" width="250" height="188" viewBox="0 0 250 188">
  <defs>
    <clipPath id="clip-path">
      <rect id="사각형_12" data-name="사각형 12" width="32" height="32" transform="translate(0.026)" fill="#fff" stroke="#fff" stroke-width="0.6"/>
    </clipPath>
  </defs>
  <g id="img_green_2" transform="translate(-65 -421)">
    <path id="합치기_3" data-name="합치기 3" d="M30,188V122L0,94,30,66V0H250V188Z" transform="translate(65 421)" fill="#0c8050"/>
    <g id="사각형_1407" data-name="사각형 1407" transform="translate(109 437)" fill="none" stroke="#fff" stroke-width="1" opacity="0.4">
      <rect width="192" height="156" stroke="none"/>
      <rect x="0.5" y="0.5" width="191" height="155" fill="none"/>
    </g>
    <g id="그룹_62" data-name="그룹 62" transform="translate(249.988 463)">
      <g id="그룹_4" data-name="그룹 4" transform="translate(-2.014 -2)" clip-path="url(#clip-path)">
        <path id="패스_9" data-name="패스 9" d="M16.809,15.724A1.157,1.157,0,1,1,15.655,14.5a1.191,1.191,0,0,1,1.155,1.224" transform="translate(-4.815 -4.321)" fill="#fff" stroke="#fff" stroke-width="0.6"/>
        <ellipse id="타원_1" data-name="타원 1" cx="1.155" cy="1.224" rx="1.155" ry="1.224" transform="translate(9.685 10.179)" fill="#fff" stroke="#fff" stroke-width="0.6"/>
        <path id="패스_10" data-name="패스 10" d="M34.809,15.724A1.157,1.157,0,1,1,33.655,14.5a1.191,1.191,0,0,1,1.155,1.224" transform="translate(-12.424 -4.321)" fill="#fff" stroke="#fff" stroke-width="0.6"/>
        <ellipse id="타원_2" data-name="타원 2" cx="1.155" cy="1.224" rx="1.155" ry="1.224" transform="translate(20.076 10.179)" fill="#fff" stroke="#fff" stroke-width="0.6"/>
        <path id="패스_11" data-name="패스 11" d="M20,29.621a7.789,7.789,0,0,1-7.473-5.309.622.622,0,0,1,.357-.779.569.569,0,0,1,.734.378A6.629,6.629,0,0,0,20,28.4a6.629,6.629,0,0,0,6.382-4.485.569.569,0,0,1,.734-.378.622.622,0,0,1,.357.779A7.789,7.789,0,0,1,20,29.621" transform="translate(-3.97 -7.812)" fill="#fff" stroke="#fff" stroke-width="0.6"/>
        <path id="패스_12" data-name="패스 12" d="M20,29.621a7.789,7.789,0,0,1-7.473-5.309.622.622,0,0,1,.357-.779.569.569,0,0,1,.734.378A6.629,6.629,0,0,0,20,28.4a6.629,6.629,0,0,0,6.382-4.485.569.569,0,0,1,.734-.378.622.622,0,0,1,.357.779A7.789,7.789,0,0,1,20,29.621Z" transform="translate(-3.97 -7.812)" fill="#fff" stroke="#fff" stroke-width="0.6"/>
        <path id="패스_13" data-name="패스 13" d="M4.606,29.88a.6.6,0,0,1-.55-.367.636.636,0,0,1,.085-.661,14.285,14.285,0,0,0,2.314-3.986A13.194,13.194,0,0,1,.5,13.966C.5,6.541,6.974.5,14.932.5S29.364,6.541,29.364,13.966,22.89,27.432,14.932,27.432a15.606,15.606,0,0,1-2.659-.228A14.116,14.116,0,0,1,4.606,29.88M14.932,1.724c-7.321,0-13.278,5.492-13.278,12.242a12.009,12.009,0,0,0,5.807,10.12.63.63,0,0,1,.248.736,16.84,16.84,0,0,1-1.858,3.732,13.191,13.191,0,0,0,5.94-2.49.56.56,0,0,1,.444-.11,14.415,14.415,0,0,0,2.7.253c7.321,0,13.278-5.492,13.278-12.242S22.253,1.724,14.932,1.724" transform="translate(1.103 1.11)" fill="#fff" stroke="#fff" stroke-width="0.6"/>
        <path id="패스_14" data-name="패스 14" d="M4.606,29.88a.6.6,0,0,1-.55-.367.636.636,0,0,1,.085-.661,14.285,14.285,0,0,0,2.314-3.986A13.194,13.194,0,0,1,.5,13.966C.5,6.541,6.974.5,14.932.5S29.364,6.541,29.364,13.966,22.89,27.432,14.932,27.432a15.606,15.606,0,0,1-2.659-.228A14.116,14.116,0,0,1,4.606,29.88ZM14.932,1.724c-7.321,0-13.278,5.492-13.278,12.242a12.009,12.009,0,0,0,5.807,10.12.63.63,0,0,1,.248.736,16.84,16.84,0,0,1-1.858,3.732,13.191,13.191,0,0,0,5.94-2.49.56.56,0,0,1,.444-.11,14.415,14.415,0,0,0,2.7.253c7.321,0,13.278-5.492,13.278-12.242S22.253,1.724,14.932,1.724Z" transform="translate(1.103 1.11)" fill="#fff" stroke="#fff" stroke-width="0.6"/>
      </g>
    </g>
  </g>
</svg>
