<svg width="132" height="52" xmlns="http://www.w3.org/2000/svg">
    <g fill="none" fill-rule="evenodd">
        <path d="M85.973 25.679c0-1.472 1.025-2.668 2.3-2.668 1.267 0 2.293 1.196 2.293 2.668 0 1.475-1.026 2.666-2.294 2.666-1.274 0-2.299-1.191-2.299-2.666m7.032 0c0-2.234-2.12-4.044-4.733-4.044-2.62 0-4.74 1.81-4.74 4.044 0 2.232 2.12 4.039 4.74 4.039 2.613 0 4.733-1.807 4.733-4.04M97.556 28.37v-6.446h-1.018c-.892 0-1.383.552-1.383 1.549v6.446h1.016c.89 0 1.385-.553 1.385-1.548M130.825 25.44h-1.619l.002-3.516h-1.012c-.893 0-1.384.552-1.384 1.549v4.239c-1.722.379-3.71.495-4.654.516l-2.887.003.002-4.12 4.72-.004c.161 0 .802-.055.802-.806v-.74h-7.916l-.002 5.802c0 .783.711 1.414 1.584 1.414h1.871c3.133 0 5.097-.33 6.48-.73v1.334h1.016c.89 0 1.38-.55 1.38-1.547l-.002-1.848h2.42v-.742c0-.747-.636-.804-.8-.804M79.14 23.477v14.058h1.015c.893 0 1.38-.55 1.38-1.547v-14.06h-1.016c-.893 0-1.379.55-1.379 1.549M71.894 25.627v-1.454h1.791c.166-.003.8-.057.8-.807v-.742h-6.763c-.165.002-.801.057-.801.806v.743H69.5v1.454c-.058 1.83-.459 4.922-3.406 7.241 0 0 .394.33.715.553.317.22 1.03.384 1.454 0a11.567 11.567 0 0 0 2.442-3.167 11.508 11.508 0 0 0 2.44 3.167c.421.384 1.135.22 1.456 0 .32-.223.71-.553.71-.553-2.945-2.319-3.358-5.412-3.417-7.241" fill="#231F20"/>
        <path d="M75.588 23.477v3.141H74.36c-.166.002-.8.058-.8.804v.742h2.028v9.37h1.017c.892 0 1.38-.55 1.38-1.546v-14.06H76.97c-.894 0-1.382.55-1.382 1.549M88.637 34.806l7.329-.001c.873 0 1.585-.632 1.585-1.413v-2.707H87.044c-.168.003-.802.056-.802.806v.742h8.912v1.025H87.62c-.891 0-1.382.552-1.382 1.548l.005 2.721h10.66c.166 0 .804-.058.804-.802v-.742h-9.069v-1.177zM124.522 37.075c-1.317 0-2.374-1.209-2.374-2.707 0-1.495 1.057-2.709 2.374-2.709 1.31 0 2.37 1.214 2.37 2.71 0 1.497-1.06 2.706-2.37 2.706m.004-6.804c-2.621 0-4.74 1.836-4.74 4.097 0 2.263 2.119 4.099 4.74 4.099 2.613 0 4.732-1.836 4.732-4.099 0-2.26-2.12-4.097-4.732-4.097M112.464 23.432V37.49h1.001c.876 0 1.362-.55 1.362-1.544V21.883h-1.001c-.88 0-1.362.548-1.362 1.55M108.964 23.432v3.142h-1.4c-.163 0-.788.058-.788.804v.743h2.188v9.368h1c.878 0 1.36-.55 1.36-1.544V21.883h-.998c-.884 0-1.362.548-1.362 1.55" fill="#231F20"/>
        <path d="M106.785 22.583h-5.559c-.151 0-.741.056-.767.804l-.03.78h4.156c-.052 1.658-.64 4.885-3.863 7.178-.31.223-.742.488-1.113.667.018-.01.222.383.573.837.31.398.807.542 1.39.169.672-.432 1.568-1.158 2.418-2.156.248-.28.463-.54.62-.772.55 1.069 1.588 2.399 2.208 2.928.376.318.91.183 1.174-.05.262-.229.655-.701.655-.701-1.333-1.42-2.425-2.886-2.845-4.222.353-1.028.876-2.41.961-4.007.04-.278.022-1.455.022-1.455" fill="#231F20"/>
        <path d="M55.382 17.72c-6.302-2.482-12.664-2.218-14.278.69-1.63 2.932.743 9.872 5.222 15.635 4.477 5.758 10.808 5.57 14.3-.72 3.437-6.272 1.039-13.128-5.244-15.605" fill="#F8A02C"/>
        <path d="M23.342 19.73c5.59 3.817 11.85 4.971 14.07 2.495 2.238-2.495 1.466-9.787-1.622-16.397C32.704-.778 26.49-2 21.69 3.356c-4.741 5.35-3.924 12.567 1.652 16.374" fill="#0080C5"/>
        <path d="M43.376 39.827c-.896-6.714-4.222-12.144-7.547-12.14-3.356.003-8.264 5.452-11.12 12.169-2.853 6.712.391 12.152 7.585 12.144 7.152-.047 11.976-5.479 11.082-12.173" fill="#EE4141"/>
        <path d="M17.858 22.377c-1.14 0-1.908.701-1.908 1.748v1.054h2.709s.09 8.935-.013 9.87c-.102.936-.34 2.46-2.014 3.26-1.445.69-1.474 1.342-1.566 1.921-.12.753.022.847.569.714 2.152-.527 4.442-1.39 5.6-3.517.63-1.156.882-2.406.882-4.307v-7.943c1.146-.014 1.973-.744 1.973-1.75v-1.05h-6.232zM14.847 34.424s-2.172 3.116-6.391 3.116c-4.353 0-7.633-3.333-7.633-7.752 0-4.48 3.28-7.857 7.633-7.857 4.142 0 6.336 3.114 6.336 3.114s-1.16 1.243-2.273 1.243c-.543 0-.951-.25-1.42-.54-.629-.39-1.343-.83-2.643-.83-2.475 0-4.489 2.184-4.489 4.87 0 2.629 2.014 4.766 4.489 4.766 1.469 0 2.158-.42 2.768-.792.433-.264.842-.515 1.434-.515 1.254 0 2.19 1.177 2.19 1.177" fill="#231F20"/>
    </g>
</svg>
